<svg height="290" preserveAspectRatio="xMidYMid meet" width="290" xmlns="http://www.w3.org/2000/svg"><g transform="matrix(.1 0 0 -.1 0 1000)"><path d="m0 8540v-1450h1450 1450v1450 1450h-1450-1450zm800 1000v-350h-350-350v350 350h350 350zm1200 200v-150h-50-50v100 100h-250-250v-200-200h-150-150v50 50h100 100v150 150h-150-150v-100-100h-50-50v150 150h550 550zm800-200v-350h-350-350v350 350h350 350zm-1600 100v-50h-50-50v50 50h50 50zm600 0v-50h-100-100v-150-150h150 150v100 100h50 50v-150-150h-550-550v150 150h50 50v-100-100h250 250v200 200h150 150zm0-200v-50h-50-50v50 50h50 50zm-1400-400v-50h-100-100v-250-250h200 200v-150-150h-50-50v100 100h-150-150v-150-150h100 100v-50-50h-150-150v550 550h150 150zm400-500v-550h-150-150v50 50h100 100v250 250h-200-200v150 150h50 50v-100-100h150 150v150 150h-100-100v50 50h150 150zm1200 0v-550h-550-550v550 550h550 550zm400 500v-50h-100-100v-250-250h200 200v-150-150h-50-50v100 100h-150-150v-150-150h100 100v-50-50h-150-150v550 550h150 150zm400-500v-550h-150-150v50 50h100 100v250 250h-200-200v150 150h50 50v-100-100h150 150v150 150h-100-100v50 50h150 150zm-2200 300v-50h-50-50v50 50h50 50zm2000 0v-50h-50-50v50 50h50 50zm-2200-600v-50h-50-50v50 50h50 50zm2000 0v-50h-50-50v50 50h50 50zm-1600-700v-350h-350-350v350 350h350 350zm1200 200v-150h-50-50v100 100h-250-250v-200-200h-150-150v50 50h100 100v150 150h-150-150v-100-100h-50-50v150 150h550 550zm800-200v-350h-350-350v350 350h350 350zm-1600 100v-50h-50-50v50 50h50 50zm600 0v-50h-100-100v-150-150h150 150v100 100h50 50v-150-150h-550-550v150 150h50 50v-100-100h250 250v200 200h150 150zm0-200v-50h-50-50v50 50h50 50z"/><path d="m200 9540v-250h250 250v250 250h-250-250zm400 0v-150h-150-150v150 150h150 150z"/><path d="m400 9540v-50h50 50v50 50h-50-50z"/><path d="m2200 9540v-250h250 250v250 250h-250-250zm400 0v-150h-150-150v150 150h150 150z"/><path d="m2400 9540v-50h50 50v50 50h-50-50z"/><path d="m200 7540v-250h250 250v250 250h-250-250zm400 0v-150h-150-150v150 150h150 150z"/><path d="m400 7540v-50h50 50v50 50h-50-50z"/><path d="m2200 7540v-250h250 250v250 250h-250-250zm400 0v-150h-150-150v150 150h150 150z"/><path d="m2400 7540v-50h50 50v50 50h-50-50z"/></g></svg>