<?xml version="1.0" encoding="UTF-8" standalone="no"?>
<svg
   version="1.0"
   width="583.000000pt"
   height="835.000000pt"
   viewBox="0 0 583.000000 835.000000"
   preserveAspectRatio="xMidYMid meet"
   id="svg3"
   sodipodi:docname="chop.svg"
   inkscape:version="1.3.2 (091e20e, 2023-11-25)"
   inkscape:export-filename="chop-2.png"
   inkscape:export-xdpi="96"
   inkscape:export-ydpi="96"
   xmlns:inkscape="http://www.inkscape.org/namespaces/inkscape"
   xmlns:sodipodi="http://sodipodi.sourceforge.net/DTD/sodipodi-0.dtd"
   xmlns="http://www.w3.org/2000/svg"
   xmlns:svg="http://www.w3.org/2000/svg">
  <defs
     id="defs3" />
  <sodipodi:namedview
     id="namedview3"
     pagecolor="#ffffff"
     bordercolor="#000000"
     borderopacity="0.25"
     inkscape:showpageshadow="2"
     inkscape:pageopacity="0.0"
     inkscape:pagecheckerboard="0"
     inkscape:deskcolor="#d1d1d1"
     inkscape:document-units="pt"
     inkscape:zoom="0.53027668"
     inkscape:cx="352.6461"
     inkscape:cy="566.6853"
     inkscape:window-width="856"
     inkscape:window-height="1040"
     inkscape:window-x="0"
     inkscape:window-y="39"
     inkscape:window-maximized="0"
     inkscape:current-layer="g3" />
  <metadata
     id="metadata1">
Created by potrace 1.16, written by Peter Selinger 2001-2019
</metadata>
  <g
     transform="translate(0.000000,835.000000) scale(0.100000,-0.100000)"
     fill="#000000"
     stroke="none"
     id="g3">
    <path
       id="path1"
       d="m 3302.8262,511.52734 c -20.4991,0.39348 -40.8669,3.41536 -60.8847,7.72211 -7.5571,1.77949 -14.9233,4.25901 -22.2931,6.67828 -21.6812,7.23193 -43.1196,15.74329 -64.1897,24.77418 -21.8529,9.38081 -43.3562,19.66605 -64.2205,31.04662 -16.8975,9.09333 -33.6927,18.37524 -50.4335,27.75342 -0.3255,0.17844 -1.0466,0.58851 -1.5236,0.85563 -3.7969,2.13732 -7.5937,4.27464 -11.3905,6.41195 -0.3541,0.20679 -1.0442,0.59264 -1.5269,0.86796 -3.7905,2.14818 -7.581,4.29636 -11.3715,6.44454 -0.5868,0.33042 -1.4485,0.82502 -2.1407,1.21844 -43.9145,24.97666 -87.5243,50.4869 -130.9012,76.38505 -16.5036,9.86227 -32.9234,19.86417 -49.2726,29.9805 -0.6026,0.37745 -1.4734,0.91331 -2.179,1.35157 -40.1747,24.8565 -80.1186,50.08364 -119.9997,75.40791 -43.9872,27.97716 -87.8587,56.13747 -131.5415,84.58787 -32.7218,21.2303 -64.811,43.41279 -96.8395,65.66904 -35.9801,25.07192 -71.7329,50.46979 -107.2606,76.17849 -31.533,22.8445 -62.8201,46.0394 -93.4401,70.0984 -2.7654,2.1585 -5.6725,4.4459 -8.3411,6.5329 -25.6066,20.1431 -51.0172,40.5423 -76.3028,61.0898 -0.4345,0.3591 -1.1366,0.9275 -1.6738,1.3668 -22.1044,18.0077 -44.1318,36.1109 -66.0035,54.4008 -12.0078,10.0661 -24.0378,20.112 -35.7152,30.5625 -0.2111,0.1954 -0.8918,0.8034 -1.2832,1.1573 -24.339,21.9685 -48.361,44.2861 -72.2051,66.79 -0.6428,0.6144 -1.5006,1.4212 -2.226,2.1096 -3.8277,3.6209 -7.8061,7.3935 -11.5396,10.9197 -4.5938,4.3717 -9.1875,8.7435 -13.7813,13.1152 -0.7929,0.7642 -1.783,1.7046 -2.6517,2.5365 -35.3934,33.7822 -70.4562,67.9123 -105.076,102.4873 -19.9749,19.9679 -39.7432,40.1423 -59.325,60.4957 -0.2766,0.2826 -0.8313,0.8665 -1.2143,1.2644 -37.291,38.8445 -73.9539,78.2882 -110.2076,118.1009 -0.5952,0.6612 -1.3888,1.5307 -2.0602,2.2719 -21.8395,24.0078 -43.4528,48.2218 -64.7855,72.6812 -0.2295,0.2598 -0.7869,0.9069 -1.142,1.3151 -6.8347,7.8655 -13.6309,15.7646 -20.3561,23.724 -0.316,0.3679 -0.8598,1.0196 -1.2631,1.4963 -18.4646,21.9158 -36.262,44.3828 -53.9498,66.9269 -29.9196,38.2437 -59.2801,76.9234 -88.1601,115.9576 -12.1426,16.4469 -24.0969,33.0393 -35.4629,50.0352 -6.5468,9.6782 -13.031,19.3985 -19.4941,29.1328 -0.2061,0.3201 -0.661,1.0024 -0.9623,1.4612 -2.1311,3.2284 -4.2622,6.4568 -6.3932,9.6853 -0.3241,0.4865 -0.821,1.2484 -1.2132,1.8461 -16.3716,24.9409 -32.4792,50.0552 -48.3093,75.3433 -7.2944,11.6984 -14.55,23.4229 -21.5899,35.2766 -4.564,7.7972 -9.0463,15.8242 -13.3564,23.6512 -15.2857,27.6901 -30.3464,55.5057 -45.0386,83.5158 -7.9868,15.236 -15.89,30.5164 -23.6391,45.8748 -0.1699,0.3477 -0.5376,1.0736 -0.7833,1.5661 -0.705,1.4064 -1.4101,2.8127 -2.1151,4.219 -0.162,0.3179 -0.5344,1.0753 -0.777,1.5615 -9.9402,19.9242 -19.4005,40.0923 -28.1072,60.5877 -1.6837,3.9042 -3.3279,7.8253 -4.9928,11.7376 -0.1005,0.2552 -0.4623,1.1074 -0.6633,1.5922 -6.2319,14.8334 -12.2886,29.7398 -18.2468,44.6851 -0.1507,0.3716 -0.443,1.116 -0.6479,1.6303 -12.5479,31.5744 -24.5711,63.3589 -35.9764,95.3641 -13.0179,36.5148 -24.4865,73.561 -35.2892,110.7849 -9.1414,31.5242 -17.7862,63.1978 -25.5542,95.09 -1.0339,4.266 -2.0374,8.5393 -3.0167,12.8182 -0.1917,0.832 -0.4411,1.9509 -0.6549,2.8931 -1.8069,7.9835 -3.4271,16.0079 -4.9896,24.0424 -0.051,0.2517 -0.2248,1.1785 -0.3231,1.6902 -0.2254,1.1901 -0.5093,2.6633 -0.6984,3.677 -7.3435,39.3157 -13.9671,78.7667 -19.8425,118.3282 -1.0742,7.2743 -2.1296,14.5514 -3.1458,21.8339 -0.044,0.3065 -0.1615,1.1896 -0.2338,1.7173 -1.4479,10.5586 -2.7935,21.1373 -3.5589,31.7706 -1.8764,25.1487 -3.0791,50.4974 -4.0921,75.5961 -0.862,22.0912 -1.5674,44.1884 -2.1347,66.2891 -0.023,1.0307 -0.057,2.3327 -0.084,3.4677 -0.2857,11.327 -0.533,22.655 -0.7539,33.9835 -0.013,0.889 -0.037,2.0664 -0.054,3.0663 -0.2147,11.459 -0.3882,22.9188 -0.5322,34.379 -0,0.7472 -0.019,1.8001 -0.028,2.6647 -0.5219,44.726 -0.3866,89.4574 0.1116,134.1829 0.012,1.1832 0.03,2.6186 0.049,3.8999 0.2868,20.266 0.6555,40.5307 1.0177,60.7954 0.011,0.6468 0.033,1.6125 0.048,2.3836 0.3121,14.0627 0.6437,28.125 0.9974,42.1868 0.035,1.4042 0.08,3.0429 0.1198,4.539 0.4537,16.8421 0.9243,33.7067 1.4427,50.5176 0.017,0.3957 0.041,1.2 0.061,1.7521 0.1684,5.0051 0.3441,10.1355 0.5078,15.0624 0.1771,5.0136 0.3542,10.0273 0.5313,15.041 0.036,0.8886 0.078,2.0653 0.116,3.0646 0.881,24.0013 1.8936,47.998 3.1203,71.9842 0.019,0.4453 0.066,1.2655 0.096,1.8544 0.119,2.2426 0.2346,4.5383 0.3549,6.6912 0.514,9.6492 1.1153,19.2934 1.7272,28.9368 0.027,0.4449 0.083,1.2645 0.1211,1.8529 0.9394,14.4183 1.9556,28.9146 2.9922,43.2741 0.5482,7.5384 1.0964,15.0768 1.6445,22.6152 0.045,0.6364 0.1198,1.5958 0.1763,2.3561 1.2627,16.8502 2.5663,33.7362 3.9268,50.6275 0.5045,6.2318 1.0281,12.6807 1.5599,19.0005 2.1342,25.4337 4.36,50.8612 6.9972,76.2483 0.036,0.2918 0.1293,1.1934 0.1872,1.7193 0.8534,8.0138 1.7882,16.0194 2.9026,24.0014 0.045,0.3388 0.1687,1.1888 0.2438,1.7235 0.094,0.6564 0.1508,1.0746 0.2177,1.5003 0.122,0.821 0.3093,2.0551 0.3898,2.6153 1.1198,7.2914 2.4147,14.5546 3.7171,21.8152 0.052,0.3012 0.2167,1.1808 0.3119,1.7039 4.4744,24.429 9.7231,48.7132 15.5182,72.8612 3.9468,16.3286 8.2105,32.6049 13.7289,48.4825 7.9083,23.4342 16.7248,46.5599 26.2985,69.3632 6.5354,15.5537 13.5449,30.9425 21.9221,45.6026 9.8604,17.4878 20.3722,34.6078 31.4448,51.3536 9.7049,14.6851 20.0061,29.0011 31.3946,42.4346 9.2848,10.9378 18.9579,21.5408 28.7808,31.996 9.0589,9.5781 18.2533,19.0344 27.759,28.1709 6.0493,5.7727 12.6163,10.9583 19.0413,16.2983 19.966,16.2974 40.3123,32.1338 61.128,47.3328 0.2633,0.1849 0.9734,0.7029 1.408,1.0155 15.7039,11.379 31.8448,22.1705 48.5635,32.0059 14.2722,8.4688 28.7455,16.5935 43.3039,24.5587 0.2657,0.1482 1.0546,0.5735 1.5211,0.828 14.5992,7.949 29.3244,15.665 44.098,23.2833 0.3228,0.1691 1.0685,0.5479 1.5533,0.7973 1.0597,0.5428 2.1194,1.0857 3.1792,1.6285 0.2168,0.1037 1.0302,0.5201 1.4765,0.7442 11.5031,5.8664 23.1559,11.441 34.9707,16.6523 1.3234,0.5897 2.8647,1.2695 4.2719,1.8938 20.6103,9.1208 41.3709,17.9028 62.2828,26.3093 0.3433,0.1326 1.1152,0.4452 1.6226,0.6467 9.616,3.8544 19.2668,7.6221 28.9477,11.3104 0.3413,0.1329 1.1229,0.4254 1.6327,0.6195 23.7151,9.0233 47.8972,16.7664 72.2647,23.8203 11.1008,3.2318 22.2283,6.3717 33.38,9.4234 0.2236,0.055 1.0753,0.2918 1.541,0.4141 5.3747,1.4556 10.7528,2.8981 16.1328,4.334 0.3836,0.097 1.1611,0.3059 1.6955,0.4458 10.1513,2.6925 20.3198,5.3209 30.5096,7.8647 0.3018,0.071 1.1657,0.287 1.6832,0.4135 15.6651,3.8868 31.3835,7.6462 47.3329,10.187 28.2029,4.6155 56.6744,7.345 85.1545,9.5536 7.2849,0.5456 14.5723,1.0579 21.8626,1.5256 0.3779,0.026 1.1984,0.075 1.7457,0.1097 6.778,0.4305 13.5586,0.8174 20.3402,1.1852 0.4453,0.019 1.2656,0.066 1.8545,0.095 9.2154,0.4889 18.4336,0.9214 27.6533,1.3189 1.3934,0.06 3.0201,0.1291 4.5054,0.1882 5.9171,0.2387 11.8346,0.4668 17.7525,0.6868 0.8886,0.034 2.0654,0.073 3.0648,0.1097 5.9748,0.2142 11.9499,0.4193 17.9254,0.611 1.414,0.039 3.0653,0.091 4.5706,0.135 1.9875,0.059 3.9751,0.1183 5.9626,0.1775 0.3534,0.013 1.2003,0.032 1.7427,0.047 29.2225,0.7992 58.4606,1.0296 87.6923,0.726 2.6414,-0.033 5.2829,-0.066 7.9244,-0.099 0.2368,-0.01 1.1991,-0.022 1.7157,-0.033 6.2997,-0.1075 12.5992,-0.231 18.8975,-0.4029 0.4881,-0.016 1.3333,-0.038 1.9582,-0.056 10.617,-0.2861 21.2311,-0.6737 31.8407,-1.1624 1.413,-0.072 3.063,-0.1506 4.5671,-0.2253 14.6952,-0.7408 29.3384,-1.7076 43.9809,-3.0727 6.4194,-0.6202 12.8285,-1.3641 19.2039,-2.3426 0.053,-0.014 1.1311,-0.1786 1.5661,-0.2486 31.1197,-4.7749 62.042,-10.5225 92.918,-16.6134 24.0325,-4.7818 48.0151,-9.8301 71.8755,-15.4113 15.943,-3.7765 31.6928,-8.3053 47.4702,-12.7084 33.0875,-9.336 66.0703,-19.0418 99.0276,-28.8308 1.5197,-0.4581 3.2576,-0.9739 4.8612,-1.4542 3.5873,-1.0719 7.1746,-2.1438 10.7619,-3.2157 0.3776,-0.1094 1.1495,-0.3468 1.6781,-0.5053 51.2436,-15.405 102.4119,-31.0662 153.4376,-47.1801 35.8766,-11.4136 71.6776,-23.0677 107.6728,-34.1049 57.058,-17.6134 114.3524,-34.4733 171.9692,-50.1678 21.8051,-5.884 43.6591,-11.6236 65.7192,-16.4813 22.5187,-4.8057 45.2858,-8.3234 68.0574,-11.682 34.2687,-4.8989 68.7055,-8.6707 103.244,-11.0315 26.6021,-1.7233 53.3065,-2.0676 79.9305,-0.6224 31.5506,1.5396 63.0137,4.6264 94.3263,8.7574 33.0676,4.4376 65.8956,10.6665 98.2774,18.7056 31.9048,7.8404 63.4935,16.9688 94.6689,27.3344 31.1311,10.4143 61.7311,22.354 91.9972,35.0488 24.3555,10.1182 48.5891,20.5407 72.5493,31.5647 26.0232,12.2504 51.537,25.5417 77.0747,38.7638 43.0495,22.4577 85.8188,45.452 128.3358,68.9023 54.9104,30.4812 108.7287,62.8824 162.1232,95.9327 28.1772,17.4756 56.2571,35.1208 83.8258,53.5458 36.3219,24.5731 71.1307,51.3024 105.2767,78.796 32.5834,26.3128 64.4423,53.5479 95.0139,82.1816 21.1754,20.0657 41.3058,41.1968 61.2024,62.5206 27.2881,29.4335 53.6858,59.705 78.827,90.9962 14.7191,18.4394 28.7021,37.4857 41.4488,57.3464 15.5012,23.8134 30.3714,48.0329 44.8651,72.4711 12.0337,20.3425 23.8102,40.8403 35.12,61.5948 6.8426,12.6649 13.2831,25.5489 19.1876,38.6787 12.9512,28.1823 24.9853,56.7781 36.5467,85.5557 13.7387,34.346 26.4728,69.1063 37.6267,104.3814 12.2249,38.4015 23.1582,77.2015 33.5524,116.1342 10.6848,40.3935 20.4392,81.0589 28.0775,122.1471 7.6173,41.8886 12.0699,84.3195 14.0618,126.838 2.3544,47.3896 2.434,94.8523 2.3653,142.2889 -0.1467,36.0323 -0.5842,72.0743 -2.2908,108.0707 -2.0886,43.0893 -6.3623,86.1942 -15.4719,128.4105 -4.7841,22.2765 -11.1057,44.2087 -18.6136,65.7162 -10.6771,31.0257 -22.7458,61.558 -35.5796,91.7504 -7.62,17.8507 -15.4996,35.5979 -24.0175,53.0405 -10.1386,20.5527 -21.4415,40.5054 -33.077,60.2407 -14.6048,24.6123 -29.9113,48.8108 -45.9565,72.5097 -16.1959,23.8966 -33.2787,47.2079 -51.613,69.5131 -15.827,19.2891 -32.5445,37.8287 -49.6135,56.0215 -18.2064,19.327 -36.9402,38.1575 -56.1615,56.4754 -21.108,19.9564 -42.9906,39.0799 -65.2812,57.701 -28.2027,23.4294 -57.2488,45.8286 -86.75,67.5945 -26.8273,19.7194 -54.267,38.6078 -82.3165,56.5476 -18.709,11.9863 -37.7236,23.4903 -56.9428,34.6383 -46.6261,27.175 -94.0678,52.94 -142.0929,77.5539 -41.6597,21.326 -83.8296,41.6538 -126.4528,60.9819 -51.0485,23.225 -102.4347,45.6995 -153.9103,67.9579 -91.5355,39.5282 -183.4971,78.064 -275.7363,115.9173 -29.8578,12.2662 -59.6981,24.5751 -89.4915,36.9972 -78.8934,32.8147 -157.71,65.8156 -236.362,99.2055 -19.5169,8.2993 -39.2014,16.6875 -58.7637,25.0657 -3.8265,1.6455 -7.8023,3.3486 -11.6863,5.0163 -4.949,2.1214 -10.008,4.3083 -15.0109,6.461 -1.137,0.4971 -2.5082,1.0865 -3.7352,1.6192 -16.4279,7.0969 -32.8179,14.2816 -49.1652,21.5624 -0.3618,0.1658 -1.0957,0.491 -1.6,0.7178 -28.4529,12.6833 -56.0412,27.2087 -83.2861,42.2873 -9.3965,5.23 -18.7284,10.5766 -27.9752,16.0672 -1.3474,0.7989 -2.8831,1.7218 -4.3008,2.5722 -14.0268,8.3848 -27.8133,17.2851 -40.3628,27.7914 -16.6765,13.6144 -32.7041,28.0367 -47.8292,43.36 -6.1491,6.2271 -12.037,12.7186 -17.4553,19.5948 -4.9963,6.303 -9.6136,12.8942 -14.2415,19.469 -10.074,14.5297 -19.4754,29.54 -27.8833,45.097 -4.8332,9.2449 -8.943,18.8437 -13.0353,28.4325 -2.3151,5.6871 -4.6409,11.4838 -5.3131,17.6371 -1.4717,10.9982 -1.8973,22.0993 -2.4571,33.1713 -0.7094,15.0934 -1.3557,30.2053 -1.0465,45.3184 0.1988,6.2858 0.4259,12.6057 1.5518,18.8063 0.7969,4.5127 2.533,8.7719 4.138,13.0404 3.5071,8.9679 7.4893,17.7406 11.502,26.4908 3.7449,7.9971 7.6677,15.9181 11.985,23.6231 6.2968,8.5379 13.1461,16.6589 20.2797,24.5069 3.4483,3.7341 6.9365,7.4511 10.7413,10.8263 4.9462,4.1112 10.2797,7.7223 15.5426,11.4091 7.768,5.3174 15.6504,10.5245 24.0434,14.8129 7.3498,3.5048 14.9773,6.3788 22.5627,9.3234 10.7537,4.0743 21.6203,7.905 32.7307,10.8928 4.5989,0.8916 9.2859,1.1886 13.9422,1.635 5.472,0.4545 10.9532,0.7975 16.4387,1.0389 0.2944,0.015 1.1992,0.051 1.728,0.074 23.3772,0.9387 46.8,0.6414 70.1546,-0.7173 0.9174,-0.056 1.8348,-0.1129 2.7521,-0.1693 0.1946,-0.01 1.1955,-0.081 1.7021,-0.1142 4.3018,-0.2887 8.5997,-0.6332 12.8936,-1.0206 0.1026,-0.014 1.1439,-0.1091 1.5909,-0.1529 2.3817,-0.2237 4.762,-0.464 7.1396,-0.728 0.341,-0.036 1.1929,-0.1361 1.7297,-0.1967 16.5711,-1.8944 32.9905,-5.1203 49.0255,-9.7163 13.0786,-3.6803 26.0413,-7.7878 38.8144,-12.4203 10.8852,-4.089 21.4973,-8.8551 32.1836,-13.4278 34.8,-15.2354 69.3255,-31.2543 103.7666,-47.3428 3.7084,-1.7338 7.6175,-3.5748 11.4085,-5.3536 61.6752,-29.0347 123.0836,-58.6368 184.3488,-88.5274 49.0321,-23.9313 97.9643,-48.067 146.8362,-72.3236 7.553,-3.7548 15.279,-7.6042 22.8986,-11.3954 18.8678,-9.3991 37.8449,-18.9065 56.7292,-28.4207 15.0834,-7.5954 30.288,-15.2779 45.3561,-22.9097 83.7234,-42.4049 167.2321,-85.2348 250.4573,-128.6099 22.5887,-11.7703 45.1445,-23.6038 67.6896,-35.4573 0.3968,-0.2056 1.1204,-0.5922 1.6424,-0.867 37.9717,-20.0416 75.8914,-40.1856 113.6105,-60.7004 22.0128,-11.9783 43.9831,-24.0408 65.6993,-36.5507 13.2172,-7.6611 26.3036,-15.5452 39.333,-23.5206 0.314,-0.1893 1.0229,-0.6289 1.4881,-0.914 40.4722,-24.8461 80.4074,-50.5627 119.8732,-76.9766 17.3778,-11.629 34.7805,-23.535 51.8435,-35.7374 1.0112,-0.7223 2.0223,-1.4446 3.0335,-2.1669 0.2763,-0.2037 0.9739,-0.7023 1.4116,-1.019 21.0895,-15.1702 41.7337,-30.954 62.2012,-46.9529 13.0388,-10.2172 26.0048,-20.5269 38.9126,-30.909 0.2862,-0.2265 0.9342,-0.7543 1.359,-1.0961 22.9226,-18.4963 45.676,-37.2054 68.1076,-56.295 12.5285,-10.6408 24.7749,-21.6109 36.7613,-32.8584 16.071,-15.076 31.7931,-30.5197 47.3737,-46.1005 21.3478,-21.3869 42.2847,-43.1851 62.7382,-65.4293 0.1492,-0.1587 0.8081,-0.8856 1.1541,-1.2637 10.3594,-11.306 20.5179,-22.7974 30.356,-34.5607 3.893,-4.6159 7.8579,-9.3923 11.654,-13.951 2.3346,-2.8151 4.6692,-5.6302 7.0039,-8.4453 0.208,-0.2454 0.7629,-0.927 1.1039,-1.3397 24.2407,-29.4447 48.0931,-59.2214 70.9676,-89.7438 5.676,-7.5808 11.1451,-15.3179 16.2763,-23.279 12.4303,-19.1421 24.6921,-38.3946 36.658,-57.8308 0.1836,-0.2922 0.6283,-1.0232 0.912,-1.4836 8.3514,-13.6285 16.6105,-27.3165 24.5685,-41.1791 5.5181,-9.7453 10.658,-19.6983 15.7031,-29.6948 0.4449,-0.892 1.019,-2.0248 1.5135,-3.0093 2.3793,-4.7035 4.7258,-9.4232 7.0764,-14.141 0.1524,-0.3016 0.5316,-1.0766 0.7709,-1.5596 8.4973,-17.1686 16.7839,-34.4409 24.9224,-51.7822 8.0152,-17.1259 16.0699,-34.3552 23.5628,-51.7626 3.2708,-7.6317 6.3499,-15.3439 9.406,-23.0636 0.1227,-0.305 0.438,-1.1179 0.6345,-1.6176 9.0127,-23.0474 17.6866,-46.2311 25.7705,-69.6216 4.3963,-12.8004 8.6648,-25.6492 12.4817,-38.6358 0.09,-0.2966 0.3378,-1.152 0.4883,-1.663 0.1862,-0.6358 0.3724,-1.2715 0.5586,-1.9073 0.076,-0.2791 0.3312,-1.1537 0.476,-1.6615 0.5172,-1.7816 1.1407,-4.0017 1.5722,-5.513 7.9307,-28.3284 14.7283,-56.958 21.2955,-85.6283 0.068,-0.3212 0.2632,-1.1714 0.3799,-1.6954 3.6401,-16.1051 7.1646,-32.2369 10.5088,-48.4061 0.1519,-0.7297 0.3601,-1.7638 0.5337,-2.6104 1.7829,-8.7192 3.4104,-17.4712 4.7612,-26.2685 -0,0.042 0.1683,-1.1222 0.2321,-1.5426 0.1485,-0.993 0.2971,-1.986 0.4457,-2.9789 -0.01,0.028 0.1571,-1.1255 0.2148,-1.5487 4.3145,-30.6597 6.0962,-61.6072 7.2246,-92.5275 0.017,-0.3884 0.041,-1.1686 0.061,-1.707 0.063,-1.9972 0.1378,-4.1978 0.2054,-6.2732 0.041,-1.2084 0.084,-2.7418 0.1254,-4.084 0.047,-1.4694 0.09,-3.0801 0.1301,-4.3752 0.106,-4.3173 0.2381,-8.8025 0.3262,-13.0157 0.2517,-12.5823 0.4313,-25.1659 0.5703,-37.75 -6e-4,-0.3619 0.01,-1.2007 0.012,-1.7452 0.2759,-29.4967 0.3533,-58.9966 0.01,-88.493 -0,-0.5635 -0.02,-1.4669 -0.029,-2.1608 -0.085,-6.3836 -0.1939,-12.7668 -0.3148,-19.1498 -0.011,-0.6719 -0.034,-1.6666 -0.05,-2.4623 -0.126,-6.2826 -0.2811,-12.5645 -0.4419,-18.8463 -0.022,-0.8888 -0.056,-2.066 -0.083,-3.0656 -0.3372,-12.5091 -0.7432,-24.994 -1.2344,-37.5318 -0.069,-1.8249 -0.1355,-3.4446 -0.2104,-5.2599 -0.8273,-20.1996 -1.805,-40.3708 -3.1263,-60.529 -0.054,-0.8284 -0.1089,-1.7313 -0.1576,-2.421 -0.9868,-14.7237 -2.0676,-29.4479 -3.7366,-44.1118 -1.2549,-10.6061 -3.3327,-21.0875 -5.1703,-31.6017 -5.5373,-30.7453 -11.5875,-61.3959 -17.8478,-92.0014 -1.7024,-8.3167 -3.4455,-16.6251 -5.1911,-24.9329 -0.088,-0.4003 -0.2504,-1.1742 -0.367,-1.7175 -2.4849,-11.7429 -5.0303,-23.4729 -7.6135,-35.1946 -0.2722,-1.2475 -0.6049,-2.7339 -0.9004,-4.0733 -1.6972,-7.652 -3.4316,-15.2957 -5.1621,-22.9403 -0.086,-0.3886 -0.2681,-1.1704 -0.3908,-1.7095 -0.3945,-1.7193 -0.789,-3.4385 -1.1834,-5.1577 -0.098,-0.3983 -0.2725,-1.1694 -0.3997,-1.7103 -1.4543,-6.2896 -2.9429,-12.5711 -4.4577,-18.8464 -0.069,-0.2938 -0.2853,-1.166 -0.4108,-1.6819 -0.9683,-3.987 -1.9638,-7.9674 -2.9623,-11.947 -0.093,-0.3528 -0.2961,-1.1636 -0.4314,-1.6918 -0.7892,-3.1067 -1.5783,-6.2133 -2.3674,-9.3199 -0.069,-0.2833 -0.3006,-1.162 -0.4321,-1.6741 -2.6871,-10.4319 -5.4449,-20.8454 -8.2515,-31.2458 -0.084,-0.3233 -0.3154,-1.1585 -0.456,-1.678 -5.0274,-18.5397 -10.2556,-37.0245 -15.6163,-55.4705 -0.1031,-0.3625 -0.3371,-1.1524 -0.4903,-1.6786 -11.0454,-37.8121 -22.8151,-75.4386 -36.5285,-112.3776 -4.9998,-13.5314 -10.2364,-26.9741 -15.5593,-40.3813 -0.1845,-0.4504 -0.4954,-1.2384 -0.7283,-1.8182 -2.7105,-6.8161 -5.4851,-13.6064 -8.2502,-20.4005 -0.1229,-0.2849 -0.4581,-1.1096 -0.6625,-1.6017 -9.2719,-22.5287 -18.7512,-44.9742 -28.6481,-67.2362 -0.1536,-0.3512 -0.4894,-1.0965 -0.7127,-1.5985 -11.3503,-25.4894 -23.2866,-50.7208 -35.9921,-75.564 -3.3405,-6.5799 -6.7114,-13.1445 -10.1018,-19.6988 -0.3138,-0.5966 -0.7691,-1.4789 -1.1372,-2.1852 -1.6844,-3.2549 -3.4744,-6.6604 -5.1167,-9.809 -1.0586,-2.0117 -2.1172,-4.0234 -3.1758,-6.0351 -0.2322,-0.4295 -0.6247,-1.1785 -0.9183,-1.7304 -3.9201,-7.4178 -7.882,-14.8133 -11.8688,-22.1954 -0.1986,-0.3586 -0.5733,-1.0549 -0.8393,-1.5428 -8.2003,-15.1308 -16.5438,-30.1841 -25.0435,-45.1486 -0.4556,-0.8059 -1.0574,-1.853 -1.5691,-2.7516 -3.5907,-6.2906 -7.216,-12.5615 -10.8879,-18.805 -0.1176,-0.189 -0.6129,-1.0306 -0.8763,-1.4715 -6.3222,-10.7009 -12.8653,-21.2741 -19.8132,-31.5815 -11.4412,-17.0343 -23.1361,-33.8972 -34.9629,-50.6658 -0.1915,-0.2621 -0.6957,-0.9785 -1.0071,-1.4148 -12.7613,-17.9899 -25.6895,-35.8687 -39.177,-53.3235 -23.05,-29.7172 -47.739,-58.1148 -72.7671,-86.1705 -8.4434,-9.4324 -16.9085,-18.85 -25.6459,-28.0121 -11.1658,-11.4286 -22.8582,-22.3254 -34.5021,-33.2615 -2.2708,-2.1133 -4.81,-4.4715 -6.9138,-6.4322 -8.3177,-7.6932 -16.6845,-15.333 -25.1022,-22.9166 -0.2118,-0.1946 -0.8938,-0.8011 -1.2863,-1.1539 -12.0069,-10.7816 -24.1209,-21.4445 -36.3622,-31.9594 -0.2794,-0.2432 -0.9125,-0.7805 -1.3273,-1.1362 -0.7997,-0.6814 -1.7503,-1.4999 -2.4462,-2.0871 -18.5163,-15.7925 -37.4471,-31.0949 -56.689,-45.9935 -37.907,-29.5216 -76.474,-58.204 -115.837,-85.7571 -0.6121,-0.4248 -0.7625,-0.536 -1.3399,-0.9309 -1.0076,-0.6918 -2.3546,-1.6241 -3.1522,-2.1671 -18.6309,-12.7283 -37.7106,-24.78 -56.7025,-36.9578 -6.3934,-4.0803 -12.8,-8.1399 -19.207,-12.1988 -0.5993,-0.3829 -1.4661,-0.9252 -2.1681,-1.3692 -3.0149,-1.901 -6.0299,-3.8021 -9.0448,-5.7031 -0.7262,-0.4502 -1.6946,-1.0626 -2.5138,-1.5751 -32.1488,-20.1867 -64.4547,-40.122 -96.9953,-59.671 -17.5111,-10.5016 -35.1321,-20.8199 -52.8679,-30.9375 -0.3445,-0.2002 -1.0435,-0.594 -1.5237,-0.8683 -11.2809,-6.4356 -22.6153,-12.7765 -33.9646,-19.0907 -0.4285,-0.2326 -1.1671,-0.6456 -1.7145,-0.9474 -3.0378,-1.6822 -6.0757,-3.3645 -9.1136,-5.0467 -0.6832,-0.38 -1.635,-0.901 -2.4214,-1.3351 -2.8081,-1.5465 -5.6162,-3.093 -8.4243,-4.6395 -1.0283,-0.5599 -2.2801,-1.2496 -3.3943,-1.8594 -8.5312,-4.6898 -17.0869,-9.3349 -25.6369,-13.9902 -0.7215,-0.3867 -1.7005,-0.9202 -2.5209,-1.3633 -34.9719,-18.9573 -70.1019,-37.6245 -105.4358,-55.8986 -14.1241,-7.2879 -28.2905,-14.4945 -42.516,-21.5819 -0.3519,-0.1787 -1.0755,-0.5339 -1.5696,-0.7802 -43.249,-21.4594 -87.0043,-41.8859 -131.0272,-61.7046 -21.2916,-9.5484 -42.6611,-18.9324 -64.2509,-27.7891 -15.4397,-6.2897 -31.1669,-11.8368 -46.9179,-17.2886 -0.3707,-0.1218 -1.1362,-0.3885 -1.658,-0.5658 -1.2683,-0.4356 -2.7776,-0.9491 -3.8967,-1.3365 -6.9578,-2.3687 -13.9214,-4.72 -20.9004,-7.0254 -0.2561,-0.08 -1.1407,-0.3725 -1.6386,-0.5341 -2.6628,-0.8708 -5.3256,-1.7416 -7.9884,-2.6124 -0.2589,-0.087 -1.1422,-0.3678 -1.6413,-0.5294 -2.6671,-0.8574 -5.3342,-1.7148 -8.0012,-2.5722 -0.2496,-0.074 -1.1444,-0.3606 -1.6423,-0.5166 -9.1075,-2.893 -18.2372,-5.7155 -27.3812,-8.4912 -0.2706,-0.085 -1.1494,-0.3452 -1.6538,-0.4975 -21.3712,-6.4645 -42.8532,-12.5976 -64.5864,-17.7349 -0.1881,-0.039 -1.1669,-0.2713 -1.6612,-0.3852 -23.9417,-5.5731 -48.1607,-9.944 -72.5221,-13.219 -16.2577,-2.1776 -32.5799,-3.8493 -48.9261,-5.2005 -0.3266,-0.029 -1.1967,-0.097 -1.7317,-0.1404 -1.0933,-0.088 -2.1867,-0.1759 -3.28,-0.2639 -0.3516,-0.023 -1.1972,-0.091 -1.7381,-0.1318 -2.7654,-0.2172 -5.5324,-0.4149 -8.299,-0.6162 -0.4031,-0.031 -1.1978,-0.084 -1.7507,-0.1231 -1.0935,-0.076 -2.187,-0.1524 -3.2806,-0.2285 -0.2028,-0.01 -1.196,-0.075 -1.7045,-0.1064 -4.4071,-0.2891 -8.8161,-0.5465 -13.2251,-0.8038 -0.3239,-0.02 -1.1415,-0.063 -1.6543,-0.092 -27.6459,-1.4724 -55.3159,-2.663 -83.0045,-2.81 -15.889,-0.1279 -31.78,-0.021 -47.6655,0.3393 -0.303,0.012 -1.2,0.03 -1.7311,0.044 -2.0655,0.051 -4.131,0.1019 -6.1966,0.1529 -0.1628,0 -1.1308,0.035 -1.6055,0.049 -10.5353,0.3146 -21.0677,0.7287 -31.5937,1.2735 -0.2606,0.011 -1.1981,0.065 -1.7192,0.093 -16.6002,0.9032 -33.1946,2.0616 -49.7184,3.9133 -8.8721,1.0469 -17.7063,2.3852 -26.5292,3.7809 -0.4795,0.073 -1.3173,0.2096 -1.934,0.3071 -34.7202,5.4841 -69.2995,11.8512 -103.7205,18.9722 -18.1954,3.7853 -36.3487,7.8155 -54.2889,12.6836 -0.2089,0.061 -1.1565,0.3156 -1.6508,0.4515 -25.3433,6.9468 -50.5722,14.3027 -75.7601,21.7915 -22.9827,6.8227 -45.926,13.7773 -68.8508,20.7921 -1.811,0.5594 -3.8236,1.1748 -5.7121,1.7558 -44.5718,13.6754 -89.2089,27.6757 -133.6674,41.9379 -40.1764,12.8651 -80.4166,25.9447 -120.7664,38.4264 -41.6328,12.9127 -83.3733,25.4839 -125.2643,37.5336 -30.536,8.7547 -61.1438,17.2734 -91.9308,25.1053 -21.4993,5.4564 -43.1499,10.3615 -65.0112,14.1421 -42.2996,7.4443 -85.0731,11.9329 -127.9148,14.7549 -35.1101,2.2803 -70.297,3.3891 -105.481,3.3051 -30.39,-0.1507 -60.7766,-1.2033 -91.1022,-3.1877 -40.7205,-2.7436 -81.3422,-7.6697 -121.3198,-15.9765 -17.2797,-3.5314 -34.473,-7.5419 -51.3912,-12.5428 -15.2341,-4.4421 -30.3657,-9.23 -45.4478,-14.1605 -24.5639,-8.1135 -48.9417,-16.845 -72.8025,-26.8544 -18.8788,-8.0149 -37.2363,-17.291 -54.7139,-28.0341 -16.9008,-10.2993 -33.2826,-21.4346 -49.2873,-33.0725 -17.4875,-12.7811 -34.4911,-26.2465 -50.6604,-40.6652 -18.2822,-16.471 -34.8926,-34.6997 -50.7131,-53.5199 -15.8414,-18.9589 -30.8278,-38.6511 -44.548,-59.2031 -11.0623,-16.5972 -21.1756,-33.8441 -29.885,-51.7951 -10.3764,-21.2627 -19.2617,-43.2236 -27.3481,-65.4488 -9.8672,-27.3954 -18.4581,-55.2821 -24.9184,-83.6858 -3.9041,-17.1279 -7.0054,-34.4368 -9.3095,-51.852 -5.7241,-40.903 -9.3797,-82.0585 -12.7198,-123.2137 -3.3509,-42.4202 -6.0444,-84.8956 -7.8096,-127.4125 -1.4666,-37.6527 -2.402,-75.3239 -3.2186,-112.9956 -1.017,-50.2955 -1.6011,-100.6021 -1.3813,-150.9084 0.1683,-30.9604 0.9321,-61.923 2.7169,-92.8348 2.4802,-44.7873 6.2655,-89.4939 10.7421,-134.1228 2.4777,-24.2462 5.1881,-48.475 8.6339,-72.6046 3.7331,-24.699 8.5347,-49.2217 13.6042,-73.6766 7.7369,-36.8099 16.4686,-73.4122 26.2055,-109.7445 9.2462,-34.2233 19.7162,-68.1309 31.9477,-101.4105 14.4174,-39.6812 30.4079,-78.7748 47.1988,-117.5055 16.8752,-38.7725 34.8925,-77.0729 54.9167,-114.3271 13.5563,-25.3957 27.6433,-50.5051 42.0023,-75.4545 19.227,-33.2921 39.0505,-66.2443 59.7042,-98.6723 12.3751,-19.3839 25.3215,-38.3969 38.57,-57.1927 22.8252,-32.5761 46.1586,-64.7955 69.9293,-96.6878 12.3616,-16.5314 24.8179,-32.9968 37.6886,-49.1365 14.5778,-18.1753 29.6531,-35.9426 44.6485,-53.7725 33.882,-40.1387 68.2414,-79.8747 103.0932,-119.1745 25.666,-28.8653 51.8528,-57.2712 78.7278,-85.0163 40.5098,-42.0281 81.8003,-83.3044 123.869,-123.7722 28.2796,-27.1416 57.0625,-53.7621 86.4519,-79.6992 35.9159,-31.8789 72.2685,-63.2647 108.9407,-94.2695 29.9722,-25.3042 60.1633,-50.3579 90.9452,-74.674 24.8345,-19.6133 50.0521,-38.7378 75.5476,-57.4828 41.0876,-30.3283 82.6515,-60.0086 124.5747,-89.17 27.0178,-18.7612 54.3366,-37.0871 81.8973,-55.0406 39.5774,-25.8779 79.4148,-51.3543 119.3334,-76.7015 45.7574,-29.0087 91.6753,-57.7644 137.7952,-86.19322 41.193,-25.33992 82.6227,-50.29538 123.6558,-75.89523 7.6556,-4.77176 15.3043,-9.55456 22.9469,-14.34721 1.5452,-0.9756 3.2733,-2.05844 4.8888,-3.07527 16.6109,-10.44265 33.1846,-20.94445 49.7147,-31.51457 0.837,-0.5415 1.9076,-1.22457 2.8343,-1.82047 23.3781,-14.99115 46.6579,-30.13544 69.7692,-45.53552 11.5039,-7.75622 23.0534,-15.46348 34.1309,-23.82565 0.017,-0.008 0.9088,-0.69088 1.2553,-0.95319 2.2679,-1.7129 4.6685,-3.61448 6.7896,-5.29095 10.1387,-8.05993 20.0234,-16.43597 29.7704,-24.96387 10.0882,-8.86357 20.0047,-17.93129 29.5451,-27.38418 5.1238,-5.07475 10.0675,-10.34708 14.4779,-16.06069 0.2948,-0.37566 0.8815,-1.12858 0.9473,-1.2076 11.0084,-14.37932 21.2262,-29.37596 30.3648,-45.01434 3.1797,-5.35233 6.0897,-10.86128 8.7146,-16.50653 3.0077,-6.44678 5.7886,-13.00803 8.165,-19.71448 1.5564,-4.621 2.4077,-9.44725 2.824,-14.29743 1.1271,-11.1445 1.3566,-22.35191 1.8394,-33.53595 0.046,-1.4012 0.092,-2.8024 0.1386,-4.20361 0.018,-0.48802 0.041,-1.3332 0.061,-1.95807 0.024,-0.72334 0.026,-0.94257 0.043,-1.62488 0.1077,-3.98357 0.1521,-7.97051 0.025,-11.95416 -1.1438,-2.62472 -2.8987,-4.91754 -4.4205,-7.327 -4.6923,-7.02178 -9.7935,-13.79661 -15.5297,-20.0014 -2.9752,-2.60443 -6.17,-4.9458 -9.3253,-7.32506 -6.3258,-4.65048 -12.8266,-9.08672 -19.598,-13.05966 -12.3528,-3.62798 -24.9353,-6.54885 -37.6938,-8.32534 -9.7681,-1.3894 -19.6386,-1.92996 -29.501,-1.79943 z" />
    <path
       id="path2"
       d="m 1580.4668,5286.7695 c -9.5039,0.2642 -19.0506,0.1788 -28.4941,1.4258 -4.559,0.5965 -9.0361,1.7224 -13.3542,3.2971 -9.2918,3.237 -18.2881,7.3084 -26.9287,12.0084 -12.4529,7.1085 -23.6875,16.091 -34.8543,25.0269 -23.019,18.6836 -44.7151,38.9157 -66.3334,59.1819 -41.0632,38.814 -80.7761,79.0274 -119.9885,119.7015 -29.7514,30.8858 -59.3153,61.9606 -88.1409,93.7152 -14.351,15.7963 -28.4256,31.8446 -42.1245,48.2103 -18.6866,22.2899 -36.8626,45.0111 -54.4172,68.2036 -9.143,12.1518 -18.1307,24.4331 -26.5121,37.1257 -6.6353,10.5574 -11.9087,21.8853 -17.1234,33.1891 -9.1614,20.1077 -17.1229,40.7709 -23.6615,61.8797 -5.347,18.063 -8.9124,36.5871 -12.2941,55.0995 -2.3816,13.6698 -4.5042,27.3978 -5.8043,41.2168 -0.6157,6.3352 -0.1933,12.7041 0.3588,19.0267 0.2682,3.278 0.5343,6.5561 0.8443,9.8305 0.029,0.2675 0.1154,1.1944 0.1665,1.7156 1.9979,20.7213 4.8605,41.3609 8.5857,61.8423 1.4424,7.6834 3.0761,15.3301 4.8396,22.946 0.058,0.2302 0.2747,1.1675 0.3939,1.6703 0.163,0.6939 0.3259,1.3878 0.4889,2.0817 0.059,0.261 0.2801,1.1668 0.4014,1.6758 3.6526,15.0797 7.6127,30.0854 11.8499,45.0112 6.2323,21.8592 13.3281,43.5145 22.3481,64.3967 8.1823,19.3696 16.9698,38.503 26.8947,57.0471 3.4889,6.4596 7.4129,12.6797 11.7439,18.6077 5.7278,7.9379 11.7781,15.6377 17.8705,23.2972 14.588,18.0633 30.2623,35.302 47.4797,50.9009 2.764,2.4878 5.5835,4.9131 8.4352,7.2997 -0.01,-0 0.8775,0.726 1.2087,1.0011 5.9698,4.9015 12.0958,9.6266 18.4834,13.9721 5.7086,3.5891 11.8139,6.4902 17.5775,9.9874 26.0972,15.1592 50.7086,32.7865 74.0406,51.9051 18.8774,15.6946 36.0117,33.3818 52.0027,51.9809 17.5601,20.1703 34.2451,41.0996 50.0918,62.6406 7.5095,10.2991 14.5928,20.9078 22.3237,31.0451 7.5964,9.9037 15.7935,19.3329 24.2814,28.4794 0.1775,0.1664 0.7621,0.94 1.2724,1.1231 10.7429,6.4388 21.6348,12.7366 33.2184,17.5542 3.8038,0.9995 7.7028,1.573 11.5608,2.3186 17.6194,3.1247 35.6436,4.4606 53.495,2.8005 6.6098,-0.6397 13.2514,-1.5437 19.5918,-3.5856 6.1677,-1.9955 11.8416,-5.1859 17.6004,-8.1051 14.9872,-7.8412 29.4886,-16.5709 43.8276,-25.5315 0.2099,-0.1287 1.0142,-0.6405 1.4531,-0.9169 18.9642,-12.0196 37.1843,-25.2164 56.662,-36.42 18.9006,-10.9136 38.9031,-20.0471 59.857,-26.2429 21.755,-6.5653 44.2686,-10.3025 66.8582,-12.4903 25.138,-2.4941 50.3879,-3.5134 75.6001,-4.9495 14.8801,-0.8376 29.7654,-1.6933 44.6008,-3.1425 0.3592,-0.042 1.1942,-0.1252 1.7356,-0.1829 0.6259,-0.065 1.2518,-0.1307 1.8777,-0.196 0.063,-0 1.1387,-0.1273 1.5781,-0.1757 9.0585,-1.0337 18.1276,-2.2372 26.9912,-4.4183 7.9242,-2.0104 15.5758,-5.241 22.3132,-9.9025 6.8222,-4.6729 13.3388,-9.7812 19.6974,-15.0636 5.9853,-5.0324 11.8007,-10.3006 17.0539,-16.101 5.5985,-6.6974 10.269,-14.0929 15.236,-21.254 17.9407,-26.8475 33.9938,-54.9261 48.6549,-83.6852 7.6512,-14.8664 15.3408,-29.7211 23.6912,-44.2105 27.0603,-47.5182 57.8352,-92.9112 91.7994,-135.7634 8.8825,-11.1985 18.0411,-22.1737 27.2832,-33.076 18.4989,-21.8835 35.7539,-44.7945 52.1499,-68.2881 7.6701,-11.0663 15.2003,-22.2436 22.0965,-33.8126 2.3565,-3.9457 4.4555,-8.0482 6.1114,-12.3389 3.1223,-7.8948 5.6569,-16.06 6.9811,-24.4602 1.3042,-7.9733 2.0086,-16.0303 2.6322,-24.0808 0.01,-0.088 0.078,-1.1453 0.1088,-1.5907 0.9965,-15.0948 1.3353,-30.2222 1.8327,-45.3389 0.2277,-8.6391 0.4436,-17.2814 0.3143,-25.924 -0.01,-0.1718 -0.024,-1.1971 -0.034,-1.7 -0.2129,-10.8184 -1.1474,-21.6677 -3.6367,-32.2184 -2.5617,-11.1482 -6.135,-22.0287 -9.6585,-32.9009 -3.3654,-10.2524 -6.8885,-20.4581 -10.9097,-30.4744 -4.8246,-12.1517 -10.123,-24.1102 -15.6649,-35.9504 -0.1392,-0.3039 -0.5106,-1.0866 -0.7389,-1.5741 -5.4137,-11.5245 -11.2511,-23.3796 -17.123,-34.3401 -6.4236,-11.9989 -13.3015,-23.7681 -20.9848,-35.0085 -4.1354,-6.116 -8.4436,-12.1135 -12.8506,-18.0363 -0.036,-0.056 -0.6879,-0.9166 -0.9526,-1.2713 -9.6334,-12.8016 -19.6619,-25.3058 -30.0102,-37.536 -4.9433,-5.8319 -10.2917,-11.9035 -15.2968,-17.3068 -6.2922,-6.7923 -12.8128,-13.3835 -19.7847,-19.4825 -3.1049,-2.7574 -6.5812,-5.7114 -9.5776,-8.1976 -10.0101,-8.2534 -20.1347,-16.3802 -30.6718,-23.9557 -7.5007,-5.3913 -15.1603,-10.5849 -23.1518,-15.2235 -9.0479,-4.7775 -18.4956,-8.7302 -27.7708,-13.0337 -1.5935,-0.7212 -3.0304,-1.3706 -4.6434,-2.0943 -17.7587,-7.9512 -35.7023,-15.4997 -53.861,-22.4943 -0.2958,-0.1079 -1.1216,-0.4281 -1.6207,-0.6174 -0.7866,-0.3007 -1.5732,-0.6014 -2.3597,-0.9021 -0.2992,-0.1162 -1.1231,-0.4244 -1.6235,-0.6143 -8.3119,-3.1268 -16.6794,-6.1069 -24.9317,-9.391 -26.9065,-10.5925 -53.1675,-22.7667 -78.9719,-35.8001 -15.5964,-7.9221 -30.9715,-16.3147 -45.7328,-25.7141 -15.9278,-10.0752 -31.3071,-20.9823 -46.6396,-31.9325 -21.7392,-15.6273 -43.0969,-31.7899 -63.9659,-48.5625 -10.9524,-8.8812 -21.7205,-18.0466 -33.496,-25.8426 -10.5514,-7.1577 -21.4127,-13.8652 -32.5678,-20.0408 -8.4705,-4.6236 -17.3376,-8.6272 -26.6841,-11.1177 -17.1067,-4.7636 -34.9383,-6.0855 -52.6224,-6.4765 -0.5134,-0.014 -1.3737,-0.033 -1.6553,-0.043 -4.3252,-0.1154 -8.6612,-0.018 -12.9703,-0.4803 -1.7507,0.047 -3.5014,0.095 -5.252,0.1425 z m 126.5859,296.377 c 31.284,0.063 62.3364,6.7591 91.4865,17.9211 37.2323,14.2217 71.9553,34.6855 103.1131,59.4793 13.3214,10.5591 26.1245,21.8017 37.9402,34.0329 9.1609,9.4396 17.6809,19.4952 25.5207,30.057 11.1676,14.9152 21.3436,30.565 30.6362,46.7117 9.8078,17.1865 18.52,35.0475 25.2586,53.6688 7.5391,21.0208 12.8249,42.8839 15.2784,65.0917 2.3725,22.4479 1.1859,45.2851 -3.7182,67.327 -4.16,19.205 -10.8926,37.7679 -18.9463,55.6633 -10.8912,24.4638 -24.4756,47.6801 -39.9058,69.5489 -12.9671,18.4636 -27.0982,36.1708 -42.9699,52.2312 -11.3453,11.3811 -23.7134,21.7108 -36.6948,31.1715 -20.3597,15.1115 -41.7728,28.9351 -64.6201,39.9959 -21.1633,10.1782 -43.4645,17.811 -66.083,24.0298 -15.0545,4.0991 -30.2683,7.6516 -45.6413,10.3355 -30.1426,5.0608 -60.9851,5.3987 -91.3329,2.0376 -18.0034,-2.0353 -35.8126,-5.8126 -53.0644,-11.3558 -17.9917,-5.6963 -35.5327,-12.6996 -52.9815,-19.8609 -38.4782,-15.965 -76.3783,-33.6328 -111.9973,-55.3265 -14.3501,-8.7857 -28.3584,-18.1591 -41.6895,-28.4334 -15.6785,-12.1516 -30.2454,-25.9414 -41.9872,-41.9905 -13.7744,-18.6952 -24.2305,-39.7117 -31.816,-61.6238 -6.2215,-17.9991 -10.53,-36.7107 -12.089,-55.7107 -1.2162,-14.3204 -0.8458,-28.7743 1.1523,-43.008 3.5014,-25.9211 11.1743,-51.139 21.1945,-75.2503 7.6241,-18.2455 17.3075,-35.6926 29.4322,-51.3431 16.3229,-21.1009 35.9975,-39.4587 57.4052,-55.3133 11.513,-8.5895 23.6324,-16.3454 36.1339,-23.4127 6.4959,-3.7194 13.1486,-7.152 19.7504,-10.6762 15.3202,-8.3316 30.0768,-17.6617 44.529,-27.4104 8.6913,-5.8591 17.1983,-11.9869 25.5648,-18.3 9.08,-6.8152 18.3006,-13.4494 27.8088,-19.6571 22.9442,-15.1558 46.7455,-29.1424 71.8561,-40.4148 22.5725,-10.1321 46.7209,-16.9402 71.3877,-19.2323 6.6769,-0.6355 13.3816,-0.9604 20.0886,-0.9834 z" />
    <path
       id="path3"
       d="m 3667.5098,1735.1152 c -4.9355,0.1374 -9.8699,0.3488 -14.793,0.7325 -0.08,0 -1.1436,0.091 -1.5872,0.1259 -11.4901,0.9766 -22.9798,2.7197 -34.0059,6.1745 -3.9824,1.1389 -7.4957,3.4026 -11.1042,5.3636 -5.9229,3.4216 -11.7284,7.0961 -17.0702,11.3778 -2.9314,3.2998 -5.5865,6.8359 -8.2086,10.3833 -1.2108,1.7232 -2.4823,3.4327 -3.5527,5.2355 -1.7031,9.2344 -2.1824,18.6524 -2.1761,28.0284 0.01,2.349 0.056,4.6977 0.1326,7.0453 0.01,0.097 0.044,1.1478 0.062,1.5953 0.1753,3.1001 0.2295,6.2163 0.6219,9.298 0.3639,1.3737 1.0272,2.6624 1.5597,3.9823 2.0179,4.6721 4.6758,9.0408 7.7033,13.1239 5.9306,8.2986 12.3346,16.2594 19.1188,23.8748 3.1151,3.4791 6.5201,6.7036 10.2717,9.4909 8.4455,6.6684 17.1548,13.002 26.0941,18.9923 0.065,0.036 0.9559,0.6333 1.3267,0.8773 0.6169,0.4071 0.908,0.6064 1.4134,0.9359 4.8391,3.148 9.6872,6.3001 14.7464,9.0861 5.1278,2.3948 10.4075,4.4497 15.6365,6.6115 1.7453,0.7089 3.4984,1.3986 5.2481,2.0966 0.2111,0.077 1.0676,0.4172 1.5273,0.5957 0.4134,0.1657 1.1812,0.4591 1.7303,0.6738 12.5262,4.8665 25.1862,9.3937 37.9715,13.5325 14.8972,4.8411 30.2353,8.1277 45.5584,11.2916 12.0484,2.3933 24.1654,4.5182 36.3975,5.7196 9.4703,1.0023 18.9557,1.8525 28.44,2.718 0.744,0.069 1.7931,0.1589 2.6543,0.2358 28.5366,2.5324 57.1081,4.6485 85.687,6.6377 33.5886,2.5112 67.1538,6.3121 100.1295,13.312 22.08,4.7741 43.843,11.6226 63.9693,21.9933 26.9328,13.792 50.6242,33.6195 69.6467,57.0975 18.1444,22.4475 31.7566,48.5952 39.378,76.4522 9.6012,34.8885 9.8881,72.2502 1.0467,107.3257 -6.5247,26.0957 -17.6168,50.9573 -31.9268,73.6983 -10.7351,16.9366 -23.4587,32.4821 -36.1074,48.0013 -21.1531,25.664 -43.1322,50.6338 -65.3783,75.3523 -18.4894,20.6668 -35.4514,42.6633 -51.3388,65.3798 -7.7196,11.128 -15.2524,22.4342 -21.4818,34.4795 -5.8637,11.2842 -11.0725,22.8976 -16.0079,34.6137 -5.7734,13.9365 -11.1936,28.0317 -15.8114,42.3965 -1.1559,3.5257 -2.0003,7.1434 -2.5825,10.8066 -1.5992,9.0393 -2.8995,18.1298 -3.9801,27.2452 -0.022,0.2244 -0.137,1.1912 -0.1948,1.7021 -1.3791,12.2995 -2.525,24.6349 -3.0142,37.0049 -0.4444,11.4594 -0.1255,22.9405 0.8175,34.3679 1.1718,15.4767 2.883,30.9207 5.3806,46.2417 1.2105,7.2348 2.5238,14.4838 4.812,21.4689 0.2974,0.9676 0.6174,1.928 0.9254,2.8922 0.017,0.035 0.3602,1.0854 0.4994,1.5005 0.3041,0.9246 0.5964,1.7996 0.9279,2.7901 1.1839,3.5873 2.441,7.1498 3.7055,10.7094 0.1068,0.2858 0.4069,1.1294 0.5879,1.6293 0.1956,0.5462 0.5208,1.4427 0.6301,1.7556 6.0848,16.718 12.7332,33.2426 20.2721,49.3608 2.1623,4.5535 4.658,8.9499 7.5615,13.0732 3.3637,5.034 6.8512,9.9849 10.4348,14.8647 0.1099,0.1404 0.7129,0.9623 1.014,1.3669 2.9621,4.0029 5.9843,7.9612 9.0504,11.8851 0.1403,0.1703 0.7422,0.9415 1.0607,1.3439 8.7389,11.0501 17.8164,21.843 27.4144,32.1586 13.0637,13.9958 27.2637,26.8942 42.0249,39.0717 0.7643,0.623 1.5287,1.2461 2.293,1.8691 0.1944,0.1513 0.9342,0.7525 1.3387,1.0771 11.3774,9.1535 23.1226,17.9142 35.6886,25.3806 6.9739,3.9908 14.4136,7.068 21.7349,10.3475 18.5749,8.0875 37.5286,15.3294 56.8488,21.4345 6.0742,1.8083 12.3221,2.9917 18.6136,3.7252 0.2084,0.028 1.1899,0.1443 1.6971,0.2064 0.8336,0.1025 0.7156,0.085 1.5199,0.1743 13.1596,1.4853 26.4105,1.8882 39.6424,2.1134 0.3704,5e-4 1.2006,0.012 1.7471,0.016 6.4558,0.078 12.9124,0.054 19.3681,-0.018 0.4286,-0 1.2243,-0.015 1.7972,-0.021 0.6672,-0.01 1.3344,-0.02 2.0016,-0.03 0.2684,-0.01 1.1475,-0.023 1.6504,-0.033 20.6027,-0.3512 41.1892,-1.2866 61.7833,-1.9333 8.6757,-0.2902 17.4559,-0.5875 26.0663,-0.8734 33.9456,-1.1714 67.8876,-2.4385 101.8301,-3.6953 65.8035,-2.5149 131.7716,-5.172 197.636,-7.7988 9.981,-0.387 19.9617,-0.7807 29.9421,-1.1836 2.9793,-0.1205 6.1281,-0.253 9.1726,-0.3781 1.9851,-0.088 4.2301,-0.1835 6.3182,-0.2744 7.4174,-0.3207 14.8336,-0.6671 22.2495,-1.0213 0.8881,-0.048 2.0642,-0.103 3.0629,-0.1537 13.0794,-0.6395 26.155,-1.3519 39.2281,-2.1061 0.2546,-0.012 1.12,-0.069 1.6094,-0.098 14.0566,-0.852 28.1105,-1.7783 42.1523,-2.8574 0.3015,-0.028 1.1966,-0.096 1.7259,-0.1393 13.4738,-1.0649 26.9403,-2.2435 40.3757,-3.7201 0.094,-0.016 1.1406,-0.1333 1.585,-0.1867 0.7744,-0.09 1.5488,-0.1802 2.3232,-0.2703 -0,0 1.1303,-0.1412 1.5579,-0.1938 1.32,-0.2033 2.6869,-0.2552 3.9738,-0.5825 7.0973,-3.4604 14.0779,-7.1783 20.8436,-11.247 4.7613,-4.02 9.2079,-8.412 13.3649,-13.0509 1.8944,-2.653 3.4071,-5.5545 5.0988,-8.3371 1.0722,-1.8982 2.2012,-3.7872 3.1473,-5.7424 1.0061,-7.7549 1.5917,-15.5752 1.5725,-23.3969 -0.1793,-6.1635 -1.0886,-12.2915 -2.4905,-18.2912 -6.1202,-9.8232 -12.913,-19.2191 -20.1405,-28.2547 -2.5207,-3.0766 -5.0632,-6.1769 -8.1806,-8.678 -9.2016,-7.7191 -18.966,-14.7701 -29.1692,-21.1055 -5.1806,-3.1932 -10.6939,-5.7975 -16.3111,-8.1214 -14.9827,-6.3175 -30.2632,-11.9119 -45.6869,-17.0513 -0.1324,-0.047 -1.0619,-0.3502 -1.5058,-0.4961 -7.7756,-2.4923 -15.5337,-5.0986 -23.4952,-6.9429 -5.1948,-1.0946 -10.9543,-1.895 -15.885,-2.6653 -6.5451,-0.9695 -13.1025,-1.8547 -19.6687,-2.6692 -0.341,-0.044 -1.1918,-0.1456 -1.7281,-0.2118 -27.744,-3.3242 -55.5851,-5.8111 -83.4652,-7.6593 -0.3269,-0.016 -1.1982,-0.076 -1.7339,-0.1084 -22.0112,-1.4362 -44.0562,-2.2487 -66.0833,-3.3928 -24.3123,-1.2312 -48.626,-2.5417 -72.894,-4.4829 -16.9719,-1.4294 -33.947,-3.0926 -50.7436,-5.9664 -22.5312,-3.8512 -44.7898,-9.9384 -65.5996,-19.4987 -28.7251,-13.1011 -54.7146,-32.4109 -74.9364,-56.7102 -24.7528,-29.543 -41.1132,-66.091 -46.3649,-104.2925 -4.4006,-31.631 -1.136,-64.2782 9.3328,-94.4433 8.0283,-23.5016 20.1711,-45.3969 34.1301,-65.8636 15.0717,-22.2152 31.9234,-43.1572 49.2774,-63.6166 12.3743,-14.4802 25.2427,-28.5274 37.7748,-42.8693 9.5184,-11.0489 18.6949,-22.3906 27.5672,-33.9642 0.1633,-0.2211 0.7271,-0.9547 1.0444,-1.3729 13.1218,-17.255 25.6945,-34.9521 37.0942,-53.3986 0.044,-0.082 0.5992,-0.9796 0.8312,-1.3619 6.27,-10.0987 11.7379,-20.6753 16.6688,-31.4858 0.038,-0.075 0.477,-1.0437 0.6631,-1.4488 8.6098,-18.8569 16.4515,-38.0758 23.2031,-57.6782 2.8969,-8.3461 5.3696,-16.8915 6.4397,-25.6836 2.7128,-19.1445 4.121,-38.4514 4.8491,-57.7663 0.051,-1.4513 0.088,-2.903 0.1263,-4.3547 -0,-0.1717 0.023,-1.1971 0.032,-1.7001 0.014,-0.7578 0.02,-0.8209 0.027,-1.5686 0.1548,-9.7426 -0.1834,-19.493 -1.0907,-29.1954 -1.337,-15.4873 -3.3311,-30.9327 -6.3695,-46.1826 -1.2997,-6.4118 -2.9734,-12.7453 -5.0293,-18.9559 -4.6708,-14.5533 -10.086,-28.8584 -15.8432,-43.0136 -4.2372,-10.2936 -8.5684,-20.5615 -13.5143,-30.5383 -2.7476,-5.5115 -5.9562,-10.7764 -9.3776,-15.8924 -8.3302,-12.6317 -17.2824,-24.8469 -26.6175,-36.7522 -11.6223,-14.7181 -24.18,-28.7163 -37.8321,-41.5832 -13.1275,-12.4539 -27.3338,-23.8162 -42.7008,-33.3951 -9.5088,-5.983 -19.3296,-11.4671 -29.3926,-16.4609 -0.2154,-0.1003 -1.0763,-0.5293 -1.5405,-0.7563 -0.491,-0.2445 -0.7442,-0.3663 -1.389,-0.6781 -11.7586,-5.6869 -23.8271,-10.7349 -36.1311,-15.1183 -0.085,-0.034 -1.0838,-0.3789 -1.5053,-0.5272 -21.7918,-7.5834 -44.4006,-12.7117 -67.26,-15.7683 -19.694,-2.6925 -39.5832,-4.0484 -59.4632,-3.7592 -0.3282,0 -1.2005,0.015 -1.7373,0.022 -0.7266,0.01 -0.9698,0.015 -1.6977,0.028 -12.545,0.2058 -25.0106,0.7582 -37.5502,1.5063 -1.1383,0.069 -2.5621,0.1509 -3.5189,0.212 -33.3597,2.0824 -66.6341,5.2963 -99.9666,7.7444 -28.7341,2.1546 -57.5139,3.7793 -86.3224,4.4731 -38.402,0.9074 -76.893,-0.067 -115.1047,-4.1585 -12.0312,-1.2485 -24.0186,-2.8704 -36.0172,-4.3902 -1.3363,-0.1606 -2.6725,-0.3212 -4.0088,-0.4818 -0.2823,-0.029 -1.1924,-0.1367 -1.7159,-0.196 -22.1032,-2.5411 -44.2907,-4.2965 -66.4964,-5.6455 -10.093,-0.5999 -20.1921,-1.1198 -30.2994,-1.4065 -0.2779,-0 -1.1998,-0.03 -1.7252,-0.042 -1.6962,-0.047 -3.3928,-0.075 -5.0893,-0.1088 -0.2042,-0.01 -1.1983,-0.016 -1.708,-0.024 -4.1313,-0.055 -8.2631,-0.078 -12.3935,0.039 z" />
  </g>
</svg>
