<?xml version="1.0" encoding="UTF-8" standalone="no"?>
<svg
   version="1.0"
   width="583pt"
   height="835.00006pt"
   viewBox="0 0 583 835.00006"
   preserveAspectRatio="xMidYMid"
   id="svg3"
   xmlns="http://www.w3.org/2000/svg"
   xmlns:svg="http://www.w3.org/2000/svg">
  <defs
     id="defs3" />
  <metadata
     id="metadata1">
Created by potrace 1.16, written by Peter Selinger 2001-2019
</metadata>
  <g
     transform="matrix(0.1,0,0,-0.1,0,835)"
     fill="#000000"
     stroke="none"
     id="g3">
    <path
       d="m 2945,8097 c -150,-39 -254,-134 -300,-276 -13,-39 -16,-76 -13,-140 9,-199 138,-356 391,-476 51,-24 259,-112 462,-196 557,-228 748,-328 922,-481 136,-119 238,-275 280,-428 27,-99 24,-352 -5,-483 -99,-445 -282,-673 -752,-935 -270,-150 -421,-202 -588,-202 -109,0 -228,28 -484,111 -407,132 -538,155 -811,146 -235,-8 -388,-45 -595,-142 -338,-160 -515,-395 -561,-745 -30,-236 -43,-790 -21,-965 68,-548 323,-1021 830,-1539 308,-315 565,-513 1045,-807 322,-197 452,-248 596,-236 84,7 144,33 202,86 126,116 114,322 -27,478 -64,71 -146,129 -391,278 -471,287 -744,501 -999,783 -397,441 -546,762 -559,1207 -5,180 10,484 28,561 51,220 215,325 510,327 159,1 244,-17 543,-114 402,-131 534,-156 771,-146 218,9 382,58 661,197 352,176 650,377 816,551 269,282 449,682 525,1164 20,123 17,441 -4,550 -37,189 -95,348 -180,500 -166,293 -426,543 -797,765 -187,113 -1048,543 -1162,581 -108,36 -249,47 -333,26 z"
       id="path1" />
    <path
       d="m 1426,6744 c -57,-21 -101,-58 -145,-123 -44,-65 -94,-112 -149,-140 -45,-23 -120,-100 -157,-160 -56,-91 -105,-263 -105,-370 0,-75 36,-199 79,-271 47,-78 176,-224 334,-378 143,-138 193,-166 307,-165 96,0 166,26 245,93 80,66 134,99 211,127 105,38 165,72 227,131 73,71 138,174 172,276 23,68 26,93 23,170 -4,116 -29,172 -127,286 -47,54 -90,118 -121,179 -92,185 -158,232 -332,241 -102,5 -108,7 -160,42 -112,77 -207,97 -302,62 z m 329,-669 c 47,-19 92,-62 116,-111 19,-39 20,-51 11,-82 -25,-81 -128,-161 -190,-147 -16,3 -53,24 -83,46 -29,23 -75,52 -101,65 -70,35 -98,102 -63,150 15,22 129,81 180,94 34,9 87,3 130,-15 z"
       id="path2" />
    <path
       d="m 4158,3215 c -187,-47 -344,-204 -392,-391 -48,-186 6,-376 153,-535 115,-125 114,-136 -20,-144 -216,-13 -322,-47 -421,-134 -123,-109 -134,-287 -23,-394 74,-72 187,-92 372,-66 58,8 114,8 220,-1 114,-10 159,-10 225,0 257,40 450,267 451,530 1,153 -54,282 -178,419 -44,48 -75,90 -73,99 3,15 24,18 149,24 81,3 174,13 208,22 181,46 290,158 291,298 0,116 -63,204 -180,248 -22,8 -115,16 -255,21 -121,5 -276,11 -345,13 -90,4 -141,1 -182,-9 z"
       id="path3" />
  </g>
</svg>
